<svg width="120" height="120" viewBox="0 0 120 120" fill="none" xmlns="http://www.w3.org/2000/svg">
<path d="M7.5 45.4999C7.5 32.1987 7.5 25.5481 10.0886 20.4677C12.3656 15.9989 15.9989 12.3656 20.4677 10.0886C25.5481 7.5 32.1987 7.5 45.4999 7.5H74.5001C87.8014 7.5 94.452 7.5 99.5321 10.0886C104.001 12.3656 107.634 15.9989 109.911 20.4677C112.5 25.5481 112.5 32.1987 112.5 45.4999V74.5001C112.5 87.8014 112.5 94.452 109.911 99.5321C107.634 104.001 104.001 107.634 99.5321 109.911C94.452 112.5 87.8014 112.5 74.5001 112.5H45.4999C32.1987 112.5 25.5481 112.5 20.4677 109.911C15.9989 107.634 12.3656 104.001 10.0886 99.5321C7.5 94.452 7.5 87.8014 7.5 74.5001V45.4999Z" fill="#330000"/>
<path d="M58.3822 73.4861H42.1114L38.8009 84.0337C38.709 84.4256 38.3482 84.7031 37.9556 84.6836H29.7144C29.2444 84.6836 29.0801 84.4189 29.2213 83.889L43.3087 42.2767C43.4497 41.8432 43.5907 41.3497 43.7314 40.7959C43.9159 39.8317 44.01 38.8522 44.0134 37.8701C43.9729 37.5799 44.2279 37.3235 44.5061 37.3642H55.7059C56.034 37.3642 56.2215 37.4846 56.2691 37.7254L72.2587 83.9614C72.3994 84.4432 72.2587 84.684 71.8361 84.6836H62.679C62.358 84.7204 62.0512 84.5002 61.9747 84.1781L58.3822 73.4861ZM44.6471 64.3834H55.7764C53.9479 58.1351 51.8842 51.969 50.2117 45.6724C48.4072 51.9799 46.4385 58.2619 44.6471 64.3834Z" fill="#FF9A00"/>
<path d="M81.7669 45.0218C81.0484 45.0514 80.3321 44.925 79.6643 44.6513C78.9968 44.3775 78.393 43.962 77.8928 43.4325C77.394 42.8798 77.0063 42.2318 76.7524 41.5249C76.4985 40.8184 76.3834 40.0673 76.4134 39.3146C76.3879 38.5695 76.5158 37.8274 76.7888 37.1364C77.0621 36.4455 77.4743 35.8215 77.9985 35.3051C78.5175 34.794 79.1303 34.3935 79.8015 34.127C80.4724 33.8603 81.1883 33.7329 81.9075 33.7518C83.5984 33.7518 84.9248 34.2696 85.8874 35.3051C86.3734 35.8432 86.751 36.4743 86.9989 37.1623C87.2464 37.8503 87.3596 38.5819 87.3311 39.3146C87.3608 40.0699 87.2419 40.824 86.9816 41.5313C86.7218 42.2385 86.3254 42.885 85.8169 43.4325C85.2855 43.9699 84.651 44.3884 83.9543 44.6621C83.2571 44.9355 82.5124 45.0581 81.7669 45.0218ZM76.9065 83.961V49.4288C76.9065 48.9953 77.0936 48.7785 77.4701 48.7785H86.1341C86.5091 48.7785 86.697 48.9953 86.6974 49.4288V83.961C86.6974 84.4433 86.5095 84.684 86.1341 84.6836H77.5406C77.118 84.6836 76.9065 84.4429 76.9065 83.961Z" fill="#FF9A00"/>
</svg>
