<svg width="120" height="120" viewBox="0 0 120 120" fill="none" xmlns="http://www.w3.org/2000/svg">
<path d="M7.5 45.4999C7.5 32.1987 7.5 25.5481 10.0886 20.4677C12.3656 15.9989 15.9989 12.3656 20.4677 10.0886C25.5481 7.5 32.1987 7.5 45.4999 7.5H74.5001C87.8014 7.5 94.452 7.5 99.5321 10.0886C104.001 12.3656 107.634 15.9989 109.911 20.4677C112.5 25.5481 112.5 32.1987 112.5 45.4999V74.5001C112.5 87.8014 112.5 94.452 109.911 99.5321C107.634 104.001 104.001 107.634 99.5321 109.911C94.452 112.5 87.8014 112.5 74.5001 112.5H45.4999C32.1987 112.5 25.5481 112.5 20.4677 109.911C15.9989 107.634 12.3656 104.001 10.0886 99.5321C7.5 94.452 7.5 87.8014 7.5 74.5001V45.4999Z" fill="#470137"/>
<path d="M18.7534 85.11V38.3213C18.72 38.0254 18.936 37.7524 19.2187 37.7329C23.5173 37.4205 27.8748 37.5131 32.1806 37.512C40.5994 37.512 49.1437 40.5608 53.2852 48.8048C55.0354 52.3118 55.9106 56.3456 55.911 60.9064C55.9624 64.0916 55.5015 67.2626 54.5482 70.2863C53.7251 72.8475 52.4636 75.2284 50.8256 77.3119C49.3001 79.2308 47.4937 80.8823 45.4747 82.2041C37.8862 87.1658 27.7671 86.3974 19.1522 85.8458C18.8863 85.8458 18.7534 85.6005 18.7534 85.11ZM27.9264 46.5608V77.0179C38.0659 77.0179 46.5105 72.7234 46.3391 61.1273C46.5619 49.3725 37.6909 45.9356 27.9264 46.5608Z" fill="#FF61F6"/>
<path d="M94.8251 85.8533H86.691C86.2447 85.917 86.0329 85.5045 85.9103 85.1175C84.2505 76.5323 82.5124 68.0786 80.9647 59.7368C79.1336 68.2204 77.2718 76.6834 75.2385 85.1175C75.1511 85.6084 74.9134 85.8533 74.5226 85.8533H66.3885C65.934 85.9046 65.6066 85.6388 65.4776 85.191L57.0184 49.8788C56.8882 49.4869 57.0619 49.2904 57.5389 49.29H65.7379C66.1283 49.29 66.3454 49.4374 66.3885 49.7318C68.2575 58.3976 69.8955 67.0819 71.2691 75.8479C72.951 67.1648 74.9066 58.4831 76.6699 50.0258C76.7081 49.5559 76.8529 49.29 77.3205 49.29H85.8454C86.1056 49.29 86.2568 49.4625 86.3006 49.8053C88.2098 58.4453 89.6831 66.9364 91.1813 76.1423C93.1969 67.473 94.362 58.5791 96.3218 49.8788C96.4084 49.4869 96.6034 49.2904 96.9075 49.29H104.521C104.911 49.29 105.063 49.5109 104.976 49.9523L95.6059 85.191C95.4881 85.581 95.2545 85.9099 94.8251 85.8533Z" fill="#FF61F6"/>
</svg>
