<svg width="120" height="120" viewBox="0 0 120 120" fill="none" xmlns="http://www.w3.org/2000/svg">
<path d="M7.5 45.4999C7.5 32.1987 7.5 25.5481 10.0886 20.4677C12.3656 15.9989 15.9989 12.3656 20.4677 10.0886C25.5481 7.5 32.1987 7.5 45.4999 7.5H74.5001C87.8014 7.5 94.452 7.5 99.5321 10.0886C104.001 12.3656 107.634 15.9989 109.911 20.4677C112.5 25.5481 112.5 32.1987 112.5 45.4999V74.5001C112.5 87.8014 112.5 94.452 109.911 99.5321C107.634 104.001 104.001 107.634 99.5321 109.911C94.452 112.5 87.8014 112.5 74.5001 112.5H45.4999C32.1987 112.5 25.5481 112.5 20.4677 109.911C15.9989 107.634 12.3656 104.001 10.0886 99.5321C7.5 94.452 7.5 87.8014 7.5 74.5001V45.4999Z" fill="#001E36"/>
<path d="M30 84.4357V38.2627C30 37.9489 30.1312 37.7693 30.4375 37.7693C34.9586 37.7693 39.4778 37.5 43.9999 37.5C51.3382 37.5 59.2838 40.0091 62.0689 47.6857C62.7251 49.5705 63.075 51.4999 63.075 53.5193C63.075 57.3784 62.2001 60.564 60.45 63.0769C55.5615 70.0961 47.0887 69.987 39.4939 69.987V84.3911C39.5531 84.8175 39.1897 85.0193 38.8376 85.0193H30.525C30.175 85.0193 30 84.8396 30 84.4357ZM39.5374 46.4295V61.5064C42.549 61.7269 45.7001 61.7509 48.5936 60.7886C51.7882 59.8669 53.5376 57.102 53.5376 53.7885C53.6261 50.9651 52.0879 48.2561 49.4689 47.2372C46.6102 46.0485 42.6232 45.9772 39.5374 46.4295Z" fill="#31A8FF"/>
<path d="M90.3626 58.5277C89.0389 57.8299 87.6289 57.3195 86.1712 57.0105C84.2985 56.5699 76.9117 55.0264 76.9087 58.8889C76.9744 61.0451 80.3974 62.1015 81.9097 62.7176C87.2194 64.5405 93.2276 67.7989 93.1095 74.349C93.2719 82.503 85.3714 85.7629 78.5992 85.7636C75.0739 85.8 71.4011 85.254 68.1746 83.7405C67.8664 83.5774 67.6684 83.229 67.6815 82.8735V75.0712C67.6466 74.7585 67.9826 74.4851 68.2451 74.7101C71.4064 76.6219 75.1534 77.5504 78.8107 77.5999C80.4251 77.5999 83.6246 77.4435 83.6006 75.0712C83.6006 72.795 79.773 71.7484 78.2471 71.1701C76.0354 70.3807 73.9384 69.2869 72.0135 67.9192C69.3232 66.0004 67.6357 62.9239 67.6815 59.5391C67.6657 51.8614 74.9381 48.4151 81.4875 48.4136C84.549 48.3881 87.837 48.615 90.687 49.8585C91.0969 49.9789 91.1816 50.4109 91.1801 50.7975V58.0942C91.206 58.5472 90.7031 58.7014 90.3626 58.5277Z" fill="#31A8FF"/>
</svg>
