<svg width="121" height="121" viewBox="0 0 121 121" fill="none" xmlns="http://www.w3.org/2000/svg">
<g clip-path="url(#clip0_199_36432)">
<path d="M60.498 120.527L25.8668 110.913L18.1494 24.3535H102.95L95.2248 110.9L60.498 120.527Z" fill="#264DE4"/>
<path d="M88.6108 105.389L95.2128 31.431H60.5498V113.168L88.6108 105.389Z" fill="#2965F1"/>
<path d="M35.8413 63.5348L36.7928 74.1509H60.5498V63.5348H35.8413Z" fill="#EBEBEB"/>
<path d="M33.9294 42.0473L34.8945 52.6637H60.5498V42.0473H33.9294Z" fill="#EBEBEB"/>
<path d="M60.55 91.1062L60.5035 91.1186L48.6801 87.9261L47.9243 79.4591H37.2673L38.7547 96.1281L60.5011 102.165L60.55 102.152V91.1062Z" fill="#EBEBEB"/>
<path d="M38.1067 0.830254H50.9647V6.20726H43.4837V11.5843H50.9647V16.9613H38.1067V0.830254Z" fill="black"/>
<path d="M53.5364 0.830254H66.3944V5.50591H58.9134V6.44104H66.3944V17.1951H53.5364V12.2856H61.0174V11.3505H53.5364V0.830254Z" fill="black"/>
<path d="M68.9661 0.830254H81.8241V5.50591H74.3431V6.44104H81.8241V17.1951H68.9661V12.2856H76.4471V11.3505H68.9661V0.830254Z" fill="black"/>
<path d="M85.1904 63.5348L87.1069 42.0473H60.5132V52.6637H75.4725L74.5065 63.5348H60.5132V74.1509H73.5859L72.3536 87.9193L60.5132 91.1151V102.16L82.277 96.1281L82.4366 94.3345L84.9313 66.3855L85.1904 63.5348Z" fill="white"/>
</g>
<defs>
<clipPath id="clip0_199_36432">
<rect width="120" height="120" fill="white" transform="translate(0.549805 0.830246)"/>
</clipPath>
</defs>
</svg>
