<svg width="120" height="120" viewBox="0 0 120 120" fill="none" xmlns="http://www.w3.org/2000/svg">
<path d="M96.7584 38.0832L76.9644 20.2687C71.3254 15.1934 68.5059 12.6557 65.0459 11.3281L64.9999 25.0005C64.9999 36.7856 64.9999 42.6782 68.6609 46.3393C72.3224 50.0005 78.2149 50.0005 89.9999 50.0005H107.9C106.087 46.4794 102.842 43.5582 96.7584 38.0832Z" fill="#1C274C"/>
<path fill-rule="evenodd" clip-rule="evenodd" d="M69.9999 110H49.9999C31.1437 110 21.7157 110 15.8578 104.142C9.99994 98.2845 9.99994 88.856 9.99994 70V50C9.99994 31.1438 9.99994 21.7157 15.8578 15.8578C21.7157 9.99999 31.1934 9.99999 50.1489 9.99999C53.1789 9.99999 55.6069 9.99999 57.6499 10.0833C57.5829 10.4829 57.5474 10.8906 57.5459 11.3028L57.4999 25.4748C57.4994 30.9603 57.4989 35.8082 58.0244 39.7158C58.5939 43.9514 59.9014 48.1863 63.3579 51.6425C66.8139 55.099 71.0489 56.4065 75.2844 56.976C79.1924 57.5015 84.0399 57.501 89.5254 57.5005H89.9999H109.787C110 60.172 110 63.4505 110 67.8145V70C110 88.856 110 98.2845 104.142 104.142C98.2844 110 88.8559 110 69.9999 110ZM21.2499 57.5C21.2499 51.287 26.2867 46.25 32.4999 46.25H47.4999C53.7129 46.25 58.7499 51.287 58.7499 57.5C58.7499 60.3815 57.6669 63.0095 55.8854 65C57.6669 66.9905 58.7499 69.6185 58.7499 72.5C58.7499 78.713 53.7129 83.75 47.4999 83.75C46.185 83.75 44.9228 83.5245 43.7499 83.11V87.5C43.7499 93.713 38.7131 98.75 32.4999 98.75C26.2867 98.75 21.2499 93.713 21.2499 87.5C21.2499 84.6185 22.3331 81.9905 24.1145 80C22.3331 78.0095 21.2499 75.3815 21.2499 72.5C21.2499 69.6185 22.3331 66.9905 24.1145 65C22.3331 63.0095 21.2499 60.3815 21.2499 57.5ZM28.7499 72.5C28.7499 70.429 30.4289 68.75 32.4999 68.75H36.2499V76.25H32.4999C30.4289 76.25 28.7499 74.571 28.7499 72.5ZM36.2499 61.25H32.4999C30.4289 61.25 28.7499 59.571 28.7499 57.5C28.7499 55.429 30.4289 53.75 32.4999 53.75H36.2499V61.25ZM51.2499 57.5C51.2499 59.571 49.571 61.25 47.4999 61.25H43.7499V53.75H47.4999C49.571 53.75 51.2499 55.429 51.2499 57.5ZM43.7499 72.5C43.7499 70.429 45.4289 68.75 47.4999 68.75C49.571 68.75 51.2499 70.429 51.2499 72.5C51.2499 74.571 49.571 76.25 47.4999 76.25C45.4289 76.25 43.7499 74.571 43.7499 72.5ZM32.4999 83.75H36.2499V87.5C36.2499 89.571 34.571 91.25 32.4999 91.25C30.4289 91.25 28.7499 89.571 28.7499 87.5C28.7499 85.429 30.4289 83.75 32.4999 83.75Z" fill="#1C274C"/>
</svg>
