<svg width="121" height="121" viewBox="0 0 121 121" fill="none" xmlns="http://www.w3.org/2000/svg">
<g clip-path="url(#clip0_199_36420)">
<path d="M103.145 24.3191L95.4199 110.865L60.6931 120.493L26.0619 110.879L18.3445 24.3191H103.145Z" fill="#E44D26"/>
<path d="M60.7449 113.134L88.8058 105.354L95.4079 31.3966H60.7449V113.134Z" fill="#F16529"/>
<path d="M45.7267 52.6292H60.7449V42.0129H34.1245L34.3786 44.8611L36.9879 74.1164H60.7449V63.5004H46.6969L45.7267 52.6292Z" fill="#EBEBEB"/>
<path d="M48.1194 79.4247H37.4624L38.9497 96.0937L60.6962 102.131L60.7451 102.117V91.0718L60.6985 91.0842L48.8752 87.8916L48.1194 79.4247Z" fill="#EBEBEB"/>
<path d="M26.2344 0.795837H31.6294V6.12609H36.5645V0.795837H41.9598V16.9371H36.5648V11.5321H31.6296V16.9371H26.2346L26.2344 0.795837Z" fill="black"/>
<path d="M49.0545 6.14853H44.3049V0.795837H59.2016V6.14853H54.4499V16.9371H49.0547L49.0545 6.14853Z" fill="black"/>
<path d="M61.5657 0.795837H67.1912L70.6516 6.46741L74.1086 0.795837H79.7362V16.9371H74.3634V8.93662L70.6516 14.6758H70.5588L66.8445 8.93662V16.9371H61.5657V0.795837Z" fill="black"/>
<path d="M82.4214 0.795837H87.818V11.6017H95.405V16.9371H82.4214V0.795837Z" fill="black"/>
<path d="M60.7083 74.1164H73.7809L72.5487 87.8849L60.7083 91.0807V102.125L82.472 96.0937L82.6317 94.3001L85.1264 66.3511L85.3854 63.5004H60.7083V74.1164Z" fill="white"/>
<path d="M60.7083 52.6033V52.6292H86.3514L86.5644 50.243L87.0481 44.8611L87.302 42.0129H60.7083V52.6033Z" fill="white"/>
</g>
<defs>
<clipPath id="clip0_199_36420">
<rect width="120" height="120" fill="white" transform="translate(0.744873 0.795837)"/>
</clipPath>
</defs>
</svg>
