<svg width="121" height="121" viewBox="0 0 121 121" fill="none" xmlns="http://www.w3.org/2000/svg">
<g clip-path="url(#clip0_206_5)">
<path d="M80.1065 0.208748H17.9165C16.1851 0.208748 14.7815 1.61232 14.7815 4.33589V118.066C14.7815 118.805 16.1851 120.209 17.9165 120.209H103.789C105.521 120.209 106.924 118.805 106.924 118.066V28.0187C106.924 26.5273 106.725 26.0473 106.374 25.6937L81.4393 0.759462C81.0858 0.408034 80.6058 0.208748 80.1065 0.208748Z" fill="#E9E9E0"/>
<path d="M81.21 0.532318V25.923H106.601L81.21 0.532318Z" fill="#D9D7CA"/>
<path d="M103.789 120.209H17.9165C16.1851 120.209 14.7815 118.805 14.7815 117.074V83.7802H106.924V117.074C106.924 118.805 105.521 120.209 103.789 120.209Z" fill="#EEAF4B"/>
<path d="M56.6123 91.7495V108.567C56.6123 109.582 56.4258 110.437 56.0551 111.129C55.6823 111.822 55.1851 112.379 54.5616 112.799C53.9358 113.219 53.218 113.512 52.408 113.677C51.598 113.842 50.7601 113.926 49.903 113.926C49.4723 113.926 48.9687 113.881 48.3944 113.793C47.8201 113.705 47.2223 113.57 46.6073 113.384C45.9923 113.197 45.4008 112.987 44.8351 112.754C44.2673 112.52 43.7894 112.257 43.3994 111.963L44.893 109.591C45.088 109.726 45.3666 109.869 45.7287 110.015C46.0908 110.161 46.4851 110.298 46.9158 110.424C47.3444 110.553 47.7944 110.662 48.2637 110.761C48.733 110.859 49.1723 110.907 49.5816 110.907C50.6144 110.907 51.4416 110.705 52.0566 110.307C52.6716 109.908 52.9973 109.227 53.038 108.271V91.7473H56.6123V91.7495Z" fill="white"/>
<path d="M74.1044 107.862C74.1044 108.642 73.9437 109.4 73.6201 110.133C73.2965 110.866 72.8444 111.511 72.2573 112.066C71.6701 112.621 70.948 113.067 70.0887 113.399C69.2294 113.731 68.2523 113.896 67.1594 113.896C66.6901 113.896 66.208 113.87 65.7087 113.823C65.2094 113.776 64.7058 113.69 64.2001 113.574C63.6923 113.457 63.208 113.296 62.7494 113.09C62.2908 112.884 61.8944 112.636 61.5623 112.342L62.1773 109.822C62.4494 109.979 62.7965 110.131 63.2165 110.277C63.6365 110.422 64.0694 110.559 64.5194 110.686C64.9673 110.814 65.4173 110.915 65.8673 110.994C66.3151 111.072 66.7351 111.112 67.1273 111.112C68.3187 111.112 69.2315 110.834 69.8658 110.277C70.5001 109.719 70.8173 108.894 70.8173 107.802C70.8173 107.137 70.5923 106.572 70.1444 106.102C69.6944 105.633 69.133 105.209 68.4601 104.827C67.7873 104.446 67.0587 104.067 66.2765 103.685C65.4944 103.304 64.7615 102.854 64.0801 102.337C63.3965 101.821 62.8287 101.21 62.3808 100.507C61.9308 99.8045 61.708 98.9259 61.708 97.8716C61.708 96.9159 61.8837 96.0652 62.2351 95.3237C62.5865 94.5823 63.0601 93.9502 63.6558 93.4337C64.2515 92.9173 64.9458 92.5209 65.7365 92.2466C66.5273 91.9723 67.363 91.8373 68.2415 91.8373C69.1394 91.8373 70.048 91.9209 70.9651 92.0859C71.8823 92.2509 72.6237 92.5209 73.1915 92.8916C73.0737 93.1445 72.9365 93.423 72.7823 93.7273C72.6258 94.0316 72.478 94.3123 72.343 94.5759C72.2058 94.8395 72.088 95.0602 71.9915 95.2359C71.893 95.4116 71.8351 95.5102 71.8158 95.5295C71.698 95.4716 71.5673 95.3945 71.4194 95.2959C71.2715 95.1973 71.0615 95.1009 70.7894 95.0023C70.5151 94.9037 70.153 94.8373 69.7051 94.7966C69.2551 94.7559 68.6787 94.7666 67.9758 94.8266C67.5837 94.8673 67.2151 94.9766 66.8615 95.163C66.508 95.3495 66.1951 95.5766 65.923 95.8509C65.6487 96.1252 65.4323 96.4316 65.278 96.7745C65.1215 97.1152 65.0444 97.4452 65.0444 97.7559C65.0444 98.5359 65.2673 99.1659 65.7173 99.6459C66.1651 100.126 66.7223 100.544 67.3865 100.906C68.0508 101.268 68.7708 101.619 69.5551 101.96C70.3351 102.301 71.0637 102.719 71.7387 103.205C72.4137 103.692 72.973 104.304 73.423 105.035C73.8773 105.768 74.1044 106.709 74.1044 107.862Z" fill="white"/>
<path d="M42.6386 40.923V32.3516C42.6386 31.1709 43.5986 30.2087 44.7815 30.2087C45.9665 30.2087 46.9243 29.2487 46.9243 28.0659C46.9243 26.883 45.9665 25.923 44.7815 25.923C41.2372 25.923 38.3529 28.8073 38.3529 32.3516V40.923C38.3529 43.2866 36.4307 45.2087 34.0672 45.2087C32.8822 45.2087 31.9243 46.1687 31.9243 47.3516C31.9243 48.5345 32.8822 49.4945 34.0672 49.4945C36.4307 49.4945 38.3529 51.4166 38.3529 53.7802V62.3516C38.3529 65.8959 41.2372 68.7802 44.7815 68.7802C45.9665 68.7802 46.9243 67.8202 46.9243 66.6373C46.9243 65.4545 45.9665 64.4945 44.7815 64.4945C43.5986 64.4945 42.6386 63.5323 42.6386 62.3516V53.7802C42.6386 51.2087 41.4772 48.9245 39.6772 47.3516C41.4772 45.7787 42.6386 43.4945 42.6386 40.923Z" fill="#EEAF4B"/>
<path d="M59.7819 43.0659C61.5571 43.0659 62.9962 41.6268 62.9962 39.8516C62.9962 38.0764 61.5571 36.6373 59.7819 36.6373C58.0067 36.6373 56.5676 38.0764 56.5676 39.8516C56.5676 41.6268 58.0067 43.0659 59.7819 43.0659Z" fill="#EEAF4B"/>
<path d="M85.4958 45.2087C83.1322 45.2087 81.2101 43.2866 81.2101 40.923V32.3516C81.2101 28.8073 78.3258 25.923 74.7815 25.923C73.5965 25.923 72.6387 26.883 72.6387 28.0659C72.6387 29.2487 73.5965 30.2087 74.7815 30.2087C75.9644 30.2087 76.9244 31.1709 76.9244 32.3516V40.923C76.9244 43.4945 78.0858 45.7787 79.8858 47.3516C78.0858 48.9245 76.9244 51.2087 76.9244 53.7802V62.3516C76.9244 63.5323 75.9644 64.4945 74.7815 64.4945C73.5965 64.4945 72.6387 65.4545 72.6387 66.6373C72.6387 67.8202 73.5965 68.7802 74.7815 68.7802C78.3258 68.7802 81.2101 65.8959 81.2101 62.3516V53.7802C81.2101 51.4166 83.1322 49.4945 85.4958 49.4945C86.6808 49.4945 87.6387 48.5345 87.6387 47.3516C87.6387 46.1687 86.6808 45.2087 85.4958 45.2087Z" fill="#EEAF4B"/>
<path d="M59.7815 51.6373C58.5965 51.6373 57.6387 52.5973 57.6387 53.7802V60.2088C57.6387 61.3916 58.5965 62.3516 59.7815 62.3516C60.9665 62.3516 61.9244 61.3916 61.9244 60.2088V53.7802C61.9244 52.5973 60.9665 51.6373 59.7815 51.6373Z" fill="#EEAF4B"/>
</g>
<defs>
<clipPath id="clip0_206_5">
<rect width="120" height="120" fill="white" transform="translate(0.853027 0.208748)"/>
</clipPath>
</defs>
</svg>
