<svg width="120" height="120" viewBox="0 0 120 120" fill="none" xmlns="http://www.w3.org/2000/svg">
<g clip-path="url(#clip0_207_29)">
<path d="M76.1047 60.0043L94.0651 29.0054L102.746 60.0214L94.0651 91.0245L76.1047 60.0214V60.0043ZM67.3511 65.0375L85.3158 96.0577L54.0304 88.0354L31.4302 65.0375H67.3511ZM85.3116 23.9508L67.3511 54.9668H31.4302L54.0304 31.9689L85.3073 23.9508H85.3116ZM110.969 49.4504L99.9964 8.68445L59.0979 19.6104L53.0426 30.2541L40.7568 30.1643L10.8228 60.0043L40.7568 89.84L53.0341 89.7459L59.0979 100.39L99.9964 111.311L110.944 70.5539L104.73 60L110.969 49.4504Z" fill="black"/>
</g>
<defs>
<clipPath id="clip0_207_29">
<rect width="102.631" height="102.631" fill="white" transform="translate(8.68457 8.68445)"/>
</clipPath>
</defs>
</svg>
